<svg xmlns="http://www.w3.org/2000/svg" xmlns:xlink="http://www.w3.org/1999/xlink"><symbol id="icon-bag" viewBox="0 0 28 32">
<title>icon-bag</title>
<path d="M14.649 3.2c1.707 0 3.2 0.996 3.911 2.56l0.356 0.853h3.413v22.187h-15.36v-22.187h3.413l0.356-0.853c0.711-1.564 2.276-2.56 3.911-2.56zM14.649 1.778c-2.347 0-4.338 1.422-5.191 3.413h-2.489c-0.782 0-1.422 0.64-1.422 1.422v22.187c0 0.782 0.64 1.422 1.422 1.422h15.36c0.782 0 1.422-0.64 1.422-1.422v-22.187c0-0.782-0.64-1.422-1.422-1.422h-2.489c-0.853-1.991-2.844-3.413-5.191-3.413v0z"/>
<path fill="none" stroke="#000" stroke-width="1.4222" stroke-miterlimit="10" stroke-linecap="butt" stroke-linejoin="miter" d="M9.173 9.387l0.924-4.196"/>
<path fill="none" stroke="#000" stroke-width="1.4222" stroke-miterlimit="10" stroke-linecap="butt" stroke-linejoin="miter" d="M20.267 9.387l-0.853-3.84"/>
<path fill="none" stroke="#000" stroke-width="1.4222" stroke-miterlimit="10" stroke-linecap="butt" stroke-linejoin="miter" d="M10.098 6.044h9.458"/>
</symbol><symbol id="icon-down" viewBox="0 0 32 32">
<title>down-arrow</title>
<path d="M30.090 8.583c-0.397-0.397-1.042-0.397-1.439 0l-12.651 12.676-12.676-12.676c-0.397-0.397-1.042-0.397-1.439 0s-0.397 1.042 0 1.439l13.371 13.371c0.198 0.198 0.447 0.298 0.719 0.298 0.248 0 0.521-0.099 0.719-0.298l13.371-13.371c0.422-0.397 0.422-1.042 0.025-1.439z"/>
</symbol><symbol id="icon-faseboock" viewBox="0 0 32 32">
<title>icon-faseboock</title>
<path d="M24 0h-4.16c-4.672 0-7.68 3.072-7.68 7.872v3.648h-4.16c-0.384 0-0.64 0.32-0.64 0.64v5.248c0 0.384 0.32 0.64 0.64 0.64h4.16v13.312c0 0.384 0.32 0.64 0.64 0.64h5.44c0.384 0 0.64-0.32 0.64-0.64v-13.312h4.864c0.384 0 0.64-0.32 0.64-0.64v-5.248c0-0.192-0.064-0.32-0.192-0.448s-0.192-0.192-0.384-0.192h-4.864v-3.072c0-1.472 0.384-2.24 2.304-2.24h2.816c0.384 0 0.64-0.32 0.64-0.64v-4.928c-0.064-0.32-0.32-0.64-0.704-0.64z"/>
</symbol><symbol id="icon-heart" viewBox="0 0 32 32">
<title>heart-1</title>
<path d="M29.415 4.545c-1.676-1.676-3.894-2.591-6.262-2.591s-4.593 0.923-6.268 2.598l-0.875 0.875-0.889-0.889c-1.676-1.676-3.908-2.605-6.275-2.605-2.361 0-4.586 0.923-6.255 2.591-1.676 1.676-2.598 3.901-2.591 6.268 0 2.368 0.929 4.586 2.605 6.262l12.74 12.74c0.176 0.176 0.414 0.271 0.644 0.271s0.468-0.088 0.644-0.265l12.767-12.72c1.676-1.676 2.598-3.901 2.598-6.268 0.007-2.368-0.909-4.593-2.585-6.268zM28.113 15.786l-12.123 12.075-12.096-12.096c-1.33-1.33-2.062-3.094-2.062-4.973s0.726-3.643 2.056-4.966c1.323-1.323 3.087-2.056 4.959-2.056 1.879 0 3.65 0.733 4.979 2.062l1.533 1.533c0.36 0.36 0.936 0.36 1.296 0l1.52-1.52c1.33-1.33 3.1-2.062 4.973-2.062s3.636 0.733 4.966 2.056c1.33 1.33 2.056 3.094 2.056 4.973 0.007 1.879-0.726 3.643-2.056 4.973z"/>
</symbol><symbol id="icon-house" viewBox="0 0 32 32">
<title>house</title>
<path d="M31.705 14.51l-15.059-13.466c-0.026-0.026-0.053-0.046-0.086-0.066-0.329-0.316-0.856-0.329-1.204-0.020l-15.059 13.466c-0.369 0.329-0.395 0.889-0.072 1.257 0.178 0.197 0.421 0.296 0.665 0.296 0.211 0 0.421-0.072 0.592-0.224l2.712-2.429v15.704c0 1.231 1 2.238 2.238 2.238 0.020 0 0.033 0 0.053 0s0.033 0 0.053 0h4.647c1.158 0 2.1-0.941 2.1-2.1v-7.984c0-0.178 0.145-0.323 0.322-0.323h4.798c0.178 0 0.323 0.145 0.323 0.323v7.984c0 1.158 0.941 2.1 2.1 2.1h4.752c1.251 0 2.238-1.231 2.238-2.804v-15.052l2.712 2.429c0.171 0.151 0.382 0.224 0.592 0.224 0.244 0 0.487-0.099 0.665-0.296 0.316-0.369 0.283-0.928-0.079-1.257zM26.031 18.9v9.55c0 0.638-0.316 1.027-0.461 1.027h-4.752c-0.178 0-0.323-0.145-0.323-0.323v-7.97c0-1.158-0.941-2.1-2.1-2.1h-4.798c-1.158 0-2.1 0.941-2.1 2.1v7.984c0 0.178-0.145 0.323-0.322 0.323h-4.647c-0.020 0-0.033 0-0.053 0s-0.033 0-0.053 0c-0.25 0-0.461-0.204-0.461-0.461v-17.297l9.991-8.925 10.077 9.010v7.082z"/>
</symbol><symbol id="icon-instagram" viewBox="0 0 32 32">
<title>instagram</title>
<path d="M16 2.881c4.275 0 4.781 0.019 6.462 0.094 1.563 0.069 2.406 0.331 2.969 0.55 0.744 0.288 1.281 0.638 1.837 1.194 0.563 0.563 0.906 1.094 1.2 1.838 0.219 0.563 0.481 1.412 0.55 2.969 0.075 1.688 0.094 2.194 0.094 6.463s-0.019 4.781-0.094 6.463c-0.069 1.563-0.331 2.406-0.55 2.969-0.288 0.744-0.637 1.281-1.194 1.837-0.563 0.563-1.094 0.906-1.837 1.2-0.563 0.219-1.413 0.481-2.969 0.55-1.688 0.075-2.194 0.094-6.463 0.094s-4.781-0.019-6.463-0.094c-1.563-0.069-2.406-0.331-2.969-0.55-0.744-0.288-1.281-0.637-1.838-1.194-0.563-0.563-0.906-1.094-1.2-1.837-0.219-0.563-0.481-1.413-0.55-2.969-0.075-1.688-0.094-2.194-0.094-6.463s0.019-4.781 0.094-6.463c0.069-1.563 0.331-2.406 0.55-2.969 0.288-0.744 0.638-1.281 1.194-1.838 0.563-0.563 1.094-0.906 1.838-1.2 0.563-0.219 1.412-0.481 2.969-0.55 1.681-0.075 2.188-0.094 6.463-0.094zM16 0c-4.344 0-4.887 0.019-6.594 0.094-1.7 0.075-2.869 0.35-3.881 0.744-1.056 0.412-1.95 0.956-2.837 1.85-0.894 0.888-1.438 1.781-1.85 2.831-0.394 1.019-0.669 2.181-0.744 3.881-0.075 1.713-0.094 2.256-0.094 6.6s0.019 4.887 0.094 6.594c0.075 1.7 0.35 2.869 0.744 3.881 0.413 1.056 0.956 1.95 1.85 2.837 0.887 0.887 1.781 1.438 2.831 1.844 1.019 0.394 2.181 0.669 3.881 0.744 1.706 0.075 2.25 0.094 6.594 0.094s4.888-0.019 6.594-0.094c1.7-0.075 2.869-0.35 3.881-0.744 1.050-0.406 1.944-0.956 2.831-1.844s1.438-1.781 1.844-2.831c0.394-1.019 0.669-2.181 0.744-3.881 0.075-1.706 0.094-2.25 0.094-6.594s-0.019-4.887-0.094-6.594c-0.075-1.7-0.35-2.869-0.744-3.881-0.394-1.063-0.938-1.956-1.831-2.844-0.887-0.887-1.781-1.438-2.831-1.844-1.019-0.394-2.181-0.669-3.881-0.744-1.712-0.081-2.256-0.1-6.6-0.1v0z"/>
<path d="M16 7.781c-4.537 0-8.219 3.681-8.219 8.219s3.681 8.219 8.219 8.219 8.219-3.681 8.219-8.219c0-4.537-3.681-8.219-8.219-8.219zM16 21.331c-2.944 0-5.331-2.387-5.331-5.331s2.387-5.331 5.331-5.331c2.944 0 5.331 2.387 5.331 5.331s-2.387 5.331-5.331 5.331z"/>
<path d="M26.462 7.456c0 1.060-0.859 1.919-1.919 1.919s-1.919-0.859-1.919-1.919c0-1.060 0.859-1.919 1.919-1.919s1.919 0.859 1.919 1.919z"/>
</symbol><symbol id="icon-login" viewBox="0 0 471.2 471.2"><g transform="matrix(6.12323e-17, -1, 1, 6.12323e-17, 0, 471.2)"><g>
	<g>
		<path d="M457.7,230.15c-7.5,0-13.5,6-13.5,13.5v122.8c0,33.4-27.2,60.5-60.5,60.5H87.5c-33.4,0-60.5-27.2-60.5-60.5v-124.8    c0-7.5-6-13.5-13.5-13.5s-13.5,6-13.5,13.5v124.8c0,48.3,39.3,87.5,87.5,87.5h296.2c48.3,0,87.5-39.3,87.5-87.5v-122.8    C471.2,236.25,465.2,230.15,457.7,230.15z" data-original="#000000" class="active-path" fill="#000000"/>
		<path d="M226.1,346.75c2.6,2.6,6.1,4,9.5,4s6.9-1.3,9.5-4l85.8-85.8c5.3-5.3,5.3-13.8,0-19.1c-5.3-5.3-13.8-5.3-19.1,0l-62.7,62.8    V30.75c0-7.5-6-13.5-13.5-13.5s-13.5,6-13.5,13.5v273.9l-62.8-62.8c-5.3-5.3-13.8-5.3-19.1,0c-5.3,5.3-5.3,13.8,0,19.1    L226.1,346.75z" data-original="#000000" class="active-path" fill="#000000"/>
	</g>
</g></g> </symbol><symbol id="icon-logotyp" viewBox="0 0 180 70">
<text transform="matrix(1.0048 0 0 1 1.0005 59.4111)" font-family="&apos;Gabriola&apos;" font-size="94.2317px">TOKO</text>
</symbol><symbol id="icon-mail" viewBox="0 0 512 512">
<g>
	<path d="M448,64H64C28.656,64,0,92.656,0,128v256c0,35.344,28.656,64,64,64h384c35.344,0,64-28.656,64-64V128
		C512,92.656,483.344,64,448,64z M342.656,234.781l135.469-116.094c0.938,3,1.875,6,1.875,9.313v256
		c0,2.219-0.844,4.188-1.281,6.281L342.656,234.781z M448,96c2.125,0,4,0.813,6,1.219L256,266.938L58,97.219
		C60,96.813,61.875,96,64,96H448z M33.266,390.25C32.828,388.156,32,386.219,32,384V128c0-3.313,0.953-6.313,1.891-9.313
		L169.313,234.75L33.266,390.25z M64,416c-3.234,0-6.172-0.938-9.125-1.844l138.75-158.563l51.969,44.531
		C248.578,302.719,252.297,304,256,304s7.422-1.281,10.406-3.875l51.969-44.531l138.75,158.563C454.188,415.062,451.25,416,448,416
		H64z"/>
</g>
<g>
</g>
<g>
</g>
<g>
</g>
<g>
</g>
<g>
</g>
<g>
</g>
<g>
</g>
<g>
</g>
<g>
</g>
<g>
</g>
<g>
</g>
<g>
</g>
<g>
</g>
<g>
</g>
<g>
</g>
</symbol><symbol id="icon-menu" viewBox="0 0 26 26">
<g id="surface1">
<path style=" " d="M 0 4 L 0 6 L 26 6 L 26 4 Z M 0 12 L 0 14 L 26 14 L 26 12 Z M 0 20 L 0 22 L 26 22 L 26 20 Z "/>
</g>
</symbol><symbol id="icon-phone" viewBox="0 0 32 32">
<title>phone-call</title>
<path d="M23.648 17.888c-0.512-0.512-1.312-0.512-1.824 0l-2.176 2.176c-6.496-1.408-7.616-6.24-7.808-7.712l2.208-2.208c0.512-0.512 0.512-1.312 0-1.792l-5.696-5.696c-0.256-0.256-0.576-0.384-0.928-0.384s-0.672 0.128-0.928 0.384l-3.040 3.168c-1.024 1.12-1.6 2.592-1.536 4.032 0.032 0.416 0.096 0.832 0.192 1.216 0.064 0.256 1.952 6.272 7.328 11.488 5.248 5.344 11.36 7.232 11.616 7.296 0.384 0.128 0.8 0.192 1.216 0.192 0.064 0 0.128 0 0.224 0 1.376 0 2.784-0.544 3.84-1.536l3.136-3.008c0.256-0.256 0.384-0.576 0.384-0.896 0-0.352-0.128-0.672-0.384-0.928l-5.824-5.792zM25.472 27.616c-0.864 0.8-2.016 1.248-3.136 1.184-0.32 0-0.608-0.064-0.896-0.16-0.064-0.032-6.048-1.888-11.072-7.008-5.12-4.992-7.008-10.88-7.008-10.944-0.096-0.256-0.128-0.576-0.16-0.896-0.032-1.12 0.384-2.24 1.184-3.104l3.040-3.136 5.728 5.696-2.208 2.208c-0.288 0.288-0.416 0.672-0.352 1.056 0.224 1.664 1.472 7.2 8.8 8.768 0.416 0.096 0.864-0.032 1.184-0.352l2.176-2.176 5.824 5.824-3.104 3.040zM16.704 7.2c-0.352 0.032-0.672-0.256-0.672-0.608-0.032-0.352 0.256-0.64 0.608-0.672 4.992-0.256 9.28 4.096 9.568 9.728 0.032 0.352-0.256 0.64-0.608 0.672 0 0-0.032 0-0.032 0-0.352 0-0.608-0.256-0.64-0.608-0.288-4.928-3.968-8.736-8.224-8.512zM30.080 15.456c0.032 0.352-0.256 0.64-0.608 0.672 0 0-0.032 0-0.032 0-0.352 0-0.608-0.256-0.64-0.608-0.192-3.456-1.568-6.656-3.904-8.992-2.336-2.304-5.312-3.488-8.416-3.328-0.352 0-0.672-0.256-0.672-0.608-0.032-0.352 0.256-0.64 0.608-0.672 3.456-0.192 6.784 1.12 9.376 3.712 2.56 2.56 4.096 6.048 4.288 9.824z"/>
</symbol><symbol id="icon-search" viewBox="0 0 32 32">
<title>icon-search</title>
<path d="M19.342 1.636c-6.116 0-11.093 4.978-11.093 11.093 0 2.631 0.924 5.049 2.489 6.969l-8.818 8.747 1.636 1.636 8.818-8.818c1.92 1.564 4.338 2.489 6.969 2.489 6.116 0 11.093-4.978 11.093-11.093s-5.049-11.022-11.093-11.022zM19.342 3.84c4.907 0 8.818 3.982 8.818 8.818s-3.982 8.818-8.818 8.818-8.818-3.982-8.818-8.818 3.911-8.818 8.818-8.818z"/>
</symbol><symbol id="icon-shoppingbag" viewBox="0 0 32 32">
<title>shopping-bag-1</title>
<path d="M28.8 27.661l-1.832-20.633c-0.039-0.458-0.425-0.805-0.877-0.805h-3.769c-0.052-3.442-2.866-6.223-6.321-6.223s-6.269 2.781-6.321 6.223h-3.769c-0.458 0-0.838 0.347-0.877 0.805l-1.832 20.633c0 0.026-0.007 0.052-0.007 0.079 0 2.349 2.153 4.26 4.803 4.26h16.007c2.65 0 4.803-1.911 4.803-4.26 0-0.026 0-0.052-0.007-0.079zM16 1.767c2.48 0 4.502 1.989 4.555 4.456h-9.109c0.052-2.467 2.074-4.456 4.555-4.456zM24.003 30.233h-16.007c-1.662 0-3.010-1.099-3.036-2.454l1.754-19.782h2.958v2.683c0 0.491 0.393 0.883 0.883 0.883s0.883-0.393 0.883-0.883v-2.683h9.116v2.683c0 0.491 0.393 0.883 0.883 0.883s0.883-0.393 0.883-0.883v-2.683h2.958l1.76 19.782c-0.026 1.355-1.381 2.454-3.036 2.454z"/>
</symbol><symbol id="icon-twitter" viewBox="0 0 32 32">
<title>icon-twitter</title>
<path d="M28.8 8.064c-0.96 0.448-1.984 0.704-3.008 0.832 1.088-0.64 1.92-1.664 2.304-2.88-1.024 0.576-2.112 1.024-3.328 1.28-0.96-1.024-2.304-1.664-3.84-1.664-2.88 0-5.248 2.368-5.248 5.248 0 0.384 0.064 0.832 0.128 1.216-4.352-0.192-8.256-2.304-10.816-5.504-0.448 0.768-0.704 1.664-0.704 2.624 0 1.792 0.896 3.456 2.368 4.352-0.832 0-1.664-0.256-2.368-0.64 0 0 0 0.064 0 0.064 0 2.56 1.792 4.672 4.224 5.12-0.448 0.128-0.896 0.192-1.408 0.192-0.32 0-0.64-0.064-0.96-0.064 0.64 2.112 2.624 3.584 4.928 3.648-1.792 1.408-4.032 2.24-6.528 2.24-0.448 0-0.832 0-1.28-0.064 2.304 1.472 5.056 2.368 8.064 2.368 9.664 0 14.976-8 14.976-14.976 0-0.256 0-0.448 0-0.704 0.896-0.704 1.792-1.664 2.496-2.688z"/>
</symbol><symbol id="icon-viber" viewBox="0 0 192 210.0428"><g><path d="M116.004,0H75.996C34.0916,0,0,34.086,0,75.9804v36.0392c0,31.1992,19.172,59.2384,48,70.66v23.3632   c0,1.582,0.9316,3.0156,2.3788,3.6564c0.5196,0.2304,1.0724,0.3436,1.6212,0.3436c0.9728,0,1.9356-0.3552,2.6856-1.0348   L77.8788,188h38.1252C157.9084,188,192,153.914,192,112.0196V75.9804C192,34.086,157.9084,0,116.004,0z M184,112.0196   C184,149.504,153.498,180,116.004,180H76.336c-0.9924,0-1.9492,0.3672-2.6856,1.0352L56,197.0236v-17.1172   c0-1.6956-1.0684-3.2072-2.668-3.7696C26.2188,166.5508,8,140.7852,8,112.0196V75.9804C8,38.496,38.502,8,75.996,8h40.008   C153.498,8,184,38.496,184,75.9804V112.0196z"/><path d="M148.8632,121.9728l-24.586-15.9688c-2.6892-1.746-5.8864-2.34-9.0212-1.6916c-3.1368,0.6604-5.8304,2.512-7.5804,5.2112   l-1.156,1.7772c-10.6408-3.5156-22.3732-8.008-29.3964-28.34l2.908-2.5272h0.002c4.9904-4.34,5.5156-11.9336,1.174-16.9336   L61.9748,41.3748c-1.4496-1.6676-3.9768-1.8396-5.6448-0.3944l-12.074,10.496c-10.594,9.2072-5.6428,22.8284-4.0156,27.3048   c0.072,0.1992,0.16,0.3908,0.2636,0.578c0.42,0.754,10.4492,18.6488,26.6424,35.1448   c16.26,16.5624,45.6172,31.8592,46.5176,32.3044c3.3536,2.176,7.1252,3.2188,10.8556,3.2188   c6.5508,0,12.9764-3.2108,16.8064-9.1016l8.7132-13.4176C151.242,125.6524,150.7148,123.1756,148.8632,121.9728z    M134.6172,136.5664c-3.6056,5.5508-11.0508,7.1288-16.9336,3.336c-0.2928-0.1524-29.4552-15.34-44.828-31   C58.4884,94.2656,48.9492,78.008,47.6464,75.7384c-3.17-8.8828-2.6092-14.344,1.8556-18.2228l9.0584-7.8712L75.168,68.75   c1.4744,1.6952,1.3048,4.1756-0.3848,5.6444l-4.908,4.2656c-1.1956,1.0392-1.6664,2.6836-1.1996,4.1956   c8.3692,27.1912,24.6408,32.5312,36.5216,36.4336l1.7304,0.57c1.7308,0.586,3.6292-0.082,4.6192-1.6132l2.838-4.3672   c0.586-0.9024,1.4804-1.5156,2.5196-1.7344c1.0428-0.2224,2.1092-0.0156,3.0136,0.5704l21.2324,13.7892L134.6172,136.5664z"/><path d="M105.1288,64.9884c-2.1288-0.6136-4.3396,0.6248-4.9432,2.7536c-0.6036,2.1252,0.6288,4.336,2.752,4.9416   c5.9608,1.6952,10.7068,6.4532,12.3884,12.418c0.4964,1.7616,2.1016,2.914,3.848,2.914c0.3592,0,0.7244-0.0468,1.0876-0.1484   c2.1252-0.6016,3.3636-2.8088,2.7636-4.9376C120.5976,74.3124,113.7384,67.4376,105.1288,64.9884z"/><path d="M135.5704,88.8748c0.3592,0,0.7244-0.0468,1.088-0.1484c2.1268-0.6016,3.3632-2.8124,2.7636-4.9372   c-4.7188-16.7308-18.0372-30.0784-34.756-34.836c-2.1248-0.6132-4.338,0.6328-4.9412,2.754   c-0.6036,2.1248,0.6288,4.3356,2.7536,4.9412c14.0664,4,25.2736,15.2344,29.2444,29.3124   C132.2208,87.7228,133.8244,88.8748,135.5704,88.8748z"/><path d="M102.9432,30.328c-2.1288-0.6132-4.3396,0.6252-4.9432,2.754c-0.6036,2.1252,0.6288,4.336,2.752,4.9416   c23.838,6.7812,42.824,25.8124,49.5508,49.664c0.496,1.7616,2.1016,2.914,3.8476,2.914c0.3592,0,0.7248-0.0468,1.088-0.1484   c2.1248-0.6016,3.3632-2.8124,2.7636-4.9376C150.5272,59.0116,129.4296,37.8672,102.9432,30.328z"/></g></symbol><symbol id="icon-x" viewBox="0 0 32 32">
<title>x</title>
<path fill="none" stroke="#000" stroke-width="2.6667" stroke-miterlimit="4" stroke-linecap="round" stroke-linejoin="round" d="M24 8l-16 16"/>
<path fill="none" stroke="#000" stroke-width="2.6667" stroke-miterlimit="4" stroke-linecap="round" stroke-linejoin="round" d="M8 8l16 16"/>
</symbol></svg>