<!-- Generated by IcoMoon.io -->
<svg version="1.1" xmlns="http://www.w3.org/2000/svg" width="32" height="32" viewBox="0 0 32 32">
<title>icon-twitter</title>
<path d="M28.8 8.064c-0.96 0.448-1.984 0.704-3.008 0.832 1.088-0.64 1.92-1.664 2.304-2.88-1.024 0.576-2.112 1.024-3.328 1.28-0.96-1.024-2.304-1.664-3.84-1.664-2.88 0-5.248 2.368-5.248 5.248 0 0.384 0.064 0.832 0.128 1.216-4.352-0.192-8.256-2.304-10.816-5.504-0.448 0.768-0.704 1.664-0.704 2.624 0 1.792 0.896 3.456 2.368 4.352-0.832 0-1.664-0.256-2.368-0.64 0 0 0 0.064 0 0.064 0 2.56 1.792 4.672 4.224 5.12-0.448 0.128-0.896 0.192-1.408 0.192-0.32 0-0.64-0.064-0.96-0.064 0.64 2.112 2.624 3.584 4.928 3.648-1.792 1.408-4.032 2.24-6.528 2.24-0.448 0-0.832 0-1.28-0.064 2.304 1.472 5.056 2.368 8.064 2.368 9.664 0 14.976-8 14.976-14.976 0-0.256 0-0.448 0-0.704 0.896-0.704 1.792-1.664 2.496-2.688z"></path>
</svg>
