<!-- Generated by IcoMoon.io -->
<svg version="1.1" xmlns="http://www.w3.org/2000/svg" width="32" height="32" viewBox="0 0 32 32">
<title>phone-call</title>
<path d="M23.648 17.888c-0.512-0.512-1.312-0.512-1.824 0l-2.176 2.176c-6.496-1.408-7.616-6.24-7.808-7.712l2.208-2.208c0.512-0.512 0.512-1.312 0-1.792l-5.696-5.696c-0.256-0.256-0.576-0.384-0.928-0.384s-0.672 0.128-0.928 0.384l-3.040 3.168c-1.024 1.12-1.6 2.592-1.536 4.032 0.032 0.416 0.096 0.832 0.192 1.216 0.064 0.256 1.952 6.272 7.328 11.488 5.248 5.344 11.36 7.232 11.616 7.296 0.384 0.128 0.8 0.192 1.216 0.192 0.064 0 0.128 0 0.224 0 1.376 0 2.784-0.544 3.84-1.536l3.136-3.008c0.256-0.256 0.384-0.576 0.384-0.896 0-0.352-0.128-0.672-0.384-0.928l-5.824-5.792zM25.472 27.616c-0.864 0.8-2.016 1.248-3.136 1.184-0.32 0-0.608-0.064-0.896-0.16-0.064-0.032-6.048-1.888-11.072-7.008-5.12-4.992-7.008-10.88-7.008-10.944-0.096-0.256-0.128-0.576-0.16-0.896-0.032-1.12 0.384-2.24 1.184-3.104l3.040-3.136 5.728 5.696-2.208 2.208c-0.288 0.288-0.416 0.672-0.352 1.056 0.224 1.664 1.472 7.2 8.8 8.768 0.416 0.096 0.864-0.032 1.184-0.352l2.176-2.176 5.824 5.824-3.104 3.040zM16.704 7.2c-0.352 0.032-0.672-0.256-0.672-0.608-0.032-0.352 0.256-0.64 0.608-0.672 4.992-0.256 9.28 4.096 9.568 9.728 0.032 0.352-0.256 0.64-0.608 0.672 0 0-0.032 0-0.032 0-0.352 0-0.608-0.256-0.64-0.608-0.288-4.928-3.968-8.736-8.224-8.512zM30.080 15.456c0.032 0.352-0.256 0.64-0.608 0.672 0 0-0.032 0-0.032 0-0.352 0-0.608-0.256-0.64-0.608-0.192-3.456-1.568-6.656-3.904-8.992-2.336-2.304-5.312-3.488-8.416-3.328-0.352 0-0.672-0.256-0.672-0.608-0.032-0.352 0.256-0.64 0.608-0.672 3.456-0.192 6.784 1.12 9.376 3.712 2.56 2.56 4.096 6.048 4.288 9.824z"></path>
</svg>
