<!-- Generated by IcoMoon.io -->
<svg version="1.1" xmlns="http://www.w3.org/2000/svg" width="32" height="32" viewBox="0 0 32 32">
<title>house</title>
<path d="M31.705 14.51l-15.059-13.466c-0.026-0.026-0.053-0.046-0.086-0.066-0.329-0.316-0.856-0.329-1.204-0.020l-15.059 13.466c-0.369 0.329-0.395 0.889-0.072 1.257 0.178 0.197 0.421 0.296 0.665 0.296 0.211 0 0.421-0.072 0.592-0.224l2.712-2.429v15.704c0 1.231 1 2.238 2.238 2.238 0.020 0 0.033 0 0.053 0s0.033 0 0.053 0h4.647c1.158 0 2.1-0.941 2.1-2.1v-7.984c0-0.178 0.145-0.323 0.322-0.323h4.798c0.178 0 0.323 0.145 0.323 0.323v7.984c0 1.158 0.941 2.1 2.1 2.1h4.752c1.251 0 2.238-1.231 2.238-2.804v-15.052l2.712 2.429c0.171 0.151 0.382 0.224 0.592 0.224 0.244 0 0.487-0.099 0.665-0.296 0.316-0.369 0.283-0.928-0.079-1.257zM26.031 18.9v9.55c0 0.638-0.316 1.027-0.461 1.027h-4.752c-0.178 0-0.323-0.145-0.323-0.323v-7.97c0-1.158-0.941-2.1-2.1-2.1h-4.798c-1.158 0-2.1 0.941-2.1 2.1v7.984c0 0.178-0.145 0.323-0.322 0.323h-4.647c-0.020 0-0.033 0-0.053 0s-0.033 0-0.053 0c-0.25 0-0.461-0.204-0.461-0.461v-17.297l9.991-8.925 10.077 9.010v7.082z"></path>
</svg>
