<svg xmlns="http://www.w3.org/2000/svg" viewBox="0 0 471.2 471.2" width="512" height="512"><path d="M230.15 13.5c0 7.5 6 13.5 13.5 13.5h122.8c33.4 0 60.5 27.2 60.5 60.5v296.2c0 33.4-27.2 60.5-60.5 60.5h-124.8c-7.5 0-13.5 6-13.5 13.5s6 13.5 13.5 13.5h124.8c48.3 0 87.5-39.3 87.5-87.5V87.5c0-48.3-39.3-87.5-87.5-87.5h-122.8c-7.4 0-13.5 6-13.5 13.5z" data-original="#000000" class="active-path"/><path d="M346.75 245.1c2.6-2.6 4-6.1 4-9.5s-1.3-6.9-4-9.5l-85.8-85.8c-5.3-5.3-13.8-5.3-19.1 0-5.3 5.3-5.3 13.8 0 19.1l62.8 62.7H30.75c-7.5 0-13.5 6-13.5 13.5s6 13.5 13.5 13.5h273.9l-62.8 62.8c-5.3 5.3-5.3 13.8 0 19.1 5.3 5.3 13.8 5.3 19.1 0l85.8-85.9z" data-original="#000000" class="active-path"/></svg>