<!-- Generated by IcoMoon.io -->
<svg version="1.1" xmlns="http://www.w3.org/2000/svg" width="32" height="32" viewBox="0 0 32 32">
<title>icon-faseboock</title>
<path d="M24 0h-4.16c-4.672 0-7.68 3.072-7.68 7.872v3.648h-4.16c-0.384 0-0.64 0.32-0.64 0.64v5.248c0 0.384 0.32 0.64 0.64 0.64h4.16v13.312c0 0.384 0.32 0.64 0.64 0.64h5.44c0.384 0 0.64-0.32 0.64-0.64v-13.312h4.864c0.384 0 0.64-0.32 0.64-0.64v-5.248c0-0.192-0.064-0.32-0.192-0.448s-0.192-0.192-0.384-0.192h-4.864v-3.072c0-1.472 0.384-2.24 2.304-2.24h2.816c0.384 0 0.64-0.32 0.64-0.64v-4.928c-0.064-0.32-0.32-0.64-0.704-0.64z"></path>
</svg>
