<!-- Generated by IcoMoon.io -->
<svg version="1.1" xmlns="http://www.w3.org/2000/svg" width="28" height="32" viewBox="0 0 28 32">
<title>icon-bag</title>
<path d="M14.649 3.2c1.707 0 3.2 0.996 3.911 2.56l0.356 0.853h3.413v22.187h-15.36v-22.187h3.413l0.356-0.853c0.711-1.564 2.276-2.56 3.911-2.56zM14.649 1.778c-2.347 0-4.338 1.422-5.191 3.413h-2.489c-0.782 0-1.422 0.64-1.422 1.422v22.187c0 0.782 0.64 1.422 1.422 1.422h15.36c0.782 0 1.422-0.64 1.422-1.422v-22.187c0-0.782-0.64-1.422-1.422-1.422h-2.489c-0.853-1.991-2.844-3.413-5.191-3.413v0z"></path>
<path fill="none" stroke="#000" stroke-width="1.4222" stroke-miterlimit="10" stroke-linecap="butt" stroke-linejoin="miter" d="M9.173 9.387l0.924-4.196"></path>
<path fill="none" stroke="#000" stroke-width="1.4222" stroke-miterlimit="10" stroke-linecap="butt" stroke-linejoin="miter" d="M20.267 9.387l-0.853-3.84"></path>
<path fill="none" stroke="#000" stroke-width="1.4222" stroke-miterlimit="10" stroke-linecap="butt" stroke-linejoin="miter" d="M10.098 6.044h9.458"></path>
</svg>
