<!-- Generated by IcoMoon.io -->
<svg version="1.1" xmlns="http://www.w3.org/2000/svg" width="32" height="32" viewBox="0 0 32 32">
<title>shopping-bag-1</title>
<path d="M28.8 27.661l-1.832-20.633c-0.039-0.458-0.425-0.805-0.877-0.805h-3.769c-0.052-3.442-2.866-6.223-6.321-6.223s-6.269 2.781-6.321 6.223h-3.769c-0.458 0-0.838 0.347-0.877 0.805l-1.832 20.633c0 0.026-0.007 0.052-0.007 0.079 0 2.349 2.153 4.26 4.803 4.26h16.007c2.65 0 4.803-1.911 4.803-4.26 0-0.026 0-0.052-0.007-0.079zM16 1.767c2.48 0 4.502 1.989 4.555 4.456h-9.109c0.052-2.467 2.074-4.456 4.555-4.456zM24.003 30.233h-16.007c-1.662 0-3.010-1.099-3.036-2.454l1.754-19.782h2.958v2.683c0 0.491 0.393 0.883 0.883 0.883s0.883-0.393 0.883-0.883v-2.683h9.116v2.683c0 0.491 0.393 0.883 0.883 0.883s0.883-0.393 0.883-0.883v-2.683h2.958l1.76 19.782c-0.026 1.355-1.381 2.454-3.036 2.454z"></path>
</svg>
