<svg xmlns="http://www.w3.org/2000/svg" xmlns:xlink="http://www.w3.org/1999/xlink" xmlns:serif="http://www.serif.com/"><symbol id="icon-bag" viewBox="0 0 28 32">
<title>icon-bag</title>
<path d="M14.649 3.2c1.707 0 3.2 0.996 3.911 2.56l0.356 0.853h3.413v22.187h-15.36v-22.187h3.413l0.356-0.853c0.711-1.564 2.276-2.56 3.911-2.56zM14.649 1.778c-2.347 0-4.338 1.422-5.191 3.413h-2.489c-0.782 0-1.422 0.64-1.422 1.422v22.187c0 0.782 0.64 1.422 1.422 1.422h15.36c0.782 0 1.422-0.64 1.422-1.422v-22.187c0-0.782-0.64-1.422-1.422-1.422h-2.489c-0.853-1.991-2.844-3.413-5.191-3.413v0z"/>
<path fill="none" stroke="#000" stroke-width="1.4222" stroke-miterlimit="10" stroke-linecap="butt" stroke-linejoin="miter" d="M9.173 9.387l0.924-4.196"/>
<path fill="none" stroke="#000" stroke-width="1.4222" stroke-miterlimit="10" stroke-linecap="butt" stroke-linejoin="miter" d="M20.267 9.387l-0.853-3.84"/>
<path fill="none" stroke="#000" stroke-width="1.4222" stroke-miterlimit="10" stroke-linecap="butt" stroke-linejoin="miter" d="M10.098 6.044h9.458"/>
</symbol><symbol id="icon-down" viewBox="0 0 32 32">
<title>down-arrow</title>
<path d="M30.090 8.583c-0.397-0.397-1.042-0.397-1.439 0l-12.651 12.676-12.676-12.676c-0.397-0.397-1.042-0.397-1.439 0s-0.397 1.042 0 1.439l13.371 13.371c0.198 0.198 0.447 0.298 0.719 0.298 0.248 0 0.521-0.099 0.719-0.298l13.371-13.371c0.422-0.397 0.422-1.042 0.025-1.439z"/>
</symbol><symbol id="icon-faseboock" viewBox="0 0 32 32">
<title>icon-faseboock</title>
<path d="M24 0h-4.16c-4.672 0-7.68 3.072-7.68 7.872v3.648h-4.16c-0.384 0-0.64 0.32-0.64 0.64v5.248c0 0.384 0.32 0.64 0.64 0.64h4.16v13.312c0 0.384 0.32 0.64 0.64 0.64h5.44c0.384 0 0.64-0.32 0.64-0.64v-13.312h4.864c0.384 0 0.64-0.32 0.64-0.64v-5.248c0-0.192-0.064-0.32-0.192-0.448s-0.192-0.192-0.384-0.192h-4.864v-3.072c0-1.472 0.384-2.24 2.304-2.24h2.816c0.384 0 0.64-0.32 0.64-0.64v-4.928c-0.064-0.32-0.32-0.64-0.704-0.64z"/>
</symbol><symbol id="icon-heart" viewBox="0 0 32 32">
<title>heart-1</title>
<path d="M29.415 4.545c-1.676-1.676-3.894-2.591-6.262-2.591s-4.593 0.923-6.268 2.598l-0.875 0.875-0.889-0.889c-1.676-1.676-3.908-2.605-6.275-2.605-2.361 0-4.586 0.923-6.255 2.591-1.676 1.676-2.598 3.901-2.591 6.268 0 2.368 0.929 4.586 2.605 6.262l12.74 12.74c0.176 0.176 0.414 0.271 0.644 0.271s0.468-0.088 0.644-0.265l12.767-12.72c1.676-1.676 2.598-3.901 2.598-6.268 0.007-2.368-0.909-4.593-2.585-6.268zM28.113 15.786l-12.123 12.075-12.096-12.096c-1.33-1.33-2.062-3.094-2.062-4.973s0.726-3.643 2.056-4.966c1.323-1.323 3.087-2.056 4.959-2.056 1.879 0 3.65 0.733 4.979 2.062l1.533 1.533c0.36 0.36 0.936 0.36 1.296 0l1.52-1.52c1.33-1.33 3.1-2.062 4.973-2.062s3.636 0.733 4.966 2.056c1.33 1.33 2.056 3.094 2.056 4.973 0.007 1.879-0.726 3.643-2.056 4.973z"/>
</symbol><symbol id="icon-house" viewBox="0 0 32 32">
<title>house</title>
<path d="M31.705 14.51l-15.059-13.466c-0.026-0.026-0.053-0.046-0.086-0.066-0.329-0.316-0.856-0.329-1.204-0.020l-15.059 13.466c-0.369 0.329-0.395 0.889-0.072 1.257 0.178 0.197 0.421 0.296 0.665 0.296 0.211 0 0.421-0.072 0.592-0.224l2.712-2.429v15.704c0 1.231 1 2.238 2.238 2.238 0.020 0 0.033 0 0.053 0s0.033 0 0.053 0h4.647c1.158 0 2.1-0.941 2.1-2.1v-7.984c0-0.178 0.145-0.323 0.322-0.323h4.798c0.178 0 0.323 0.145 0.323 0.323v7.984c0 1.158 0.941 2.1 2.1 2.1h4.752c1.251 0 2.238-1.231 2.238-2.804v-15.052l2.712 2.429c0.171 0.151 0.382 0.224 0.592 0.224 0.244 0 0.487-0.099 0.665-0.296 0.316-0.369 0.283-0.928-0.079-1.257zM26.031 18.9v9.55c0 0.638-0.316 1.027-0.461 1.027h-4.752c-0.178 0-0.323-0.145-0.323-0.323v-7.97c0-1.158-0.941-2.1-2.1-2.1h-4.798c-1.158 0-2.1 0.941-2.1 2.1v7.984c0 0.178-0.145 0.323-0.322 0.323h-4.647c-0.020 0-0.033 0-0.053 0s-0.033 0-0.053 0c-0.25 0-0.461-0.204-0.461-0.461v-17.297l9.991-8.925 10.077 9.010v7.082z"/>
</symbol><symbol id="icon-instagram" viewBox="0 0 32 32">
<title>instagram</title>
<path d="M16 2.881c4.275 0 4.781 0.019 6.462 0.094 1.563 0.069 2.406 0.331 2.969 0.55 0.744 0.288 1.281 0.638 1.837 1.194 0.563 0.563 0.906 1.094 1.2 1.838 0.219 0.563 0.481 1.412 0.55 2.969 0.075 1.688 0.094 2.194 0.094 6.463s-0.019 4.781-0.094 6.463c-0.069 1.563-0.331 2.406-0.55 2.969-0.288 0.744-0.637 1.281-1.194 1.837-0.563 0.563-1.094 0.906-1.837 1.2-0.563 0.219-1.413 0.481-2.969 0.55-1.688 0.075-2.194 0.094-6.463 0.094s-4.781-0.019-6.463-0.094c-1.563-0.069-2.406-0.331-2.969-0.55-0.744-0.288-1.281-0.637-1.838-1.194-0.563-0.563-0.906-1.094-1.2-1.837-0.219-0.563-0.481-1.413-0.55-2.969-0.075-1.688-0.094-2.194-0.094-6.463s0.019-4.781 0.094-6.463c0.069-1.563 0.331-2.406 0.55-2.969 0.288-0.744 0.638-1.281 1.194-1.838 0.563-0.563 1.094-0.906 1.838-1.2 0.563-0.219 1.412-0.481 2.969-0.55 1.681-0.075 2.188-0.094 6.463-0.094zM16 0c-4.344 0-4.887 0.019-6.594 0.094-1.7 0.075-2.869 0.35-3.881 0.744-1.056 0.412-1.95 0.956-2.837 1.85-0.894 0.888-1.438 1.781-1.85 2.831-0.394 1.019-0.669 2.181-0.744 3.881-0.075 1.713-0.094 2.256-0.094 6.6s0.019 4.887 0.094 6.594c0.075 1.7 0.35 2.869 0.744 3.881 0.413 1.056 0.956 1.95 1.85 2.837 0.887 0.887 1.781 1.438 2.831 1.844 1.019 0.394 2.181 0.669 3.881 0.744 1.706 0.075 2.25 0.094 6.594 0.094s4.888-0.019 6.594-0.094c1.7-0.075 2.869-0.35 3.881-0.744 1.050-0.406 1.944-0.956 2.831-1.844s1.438-1.781 1.844-2.831c0.394-1.019 0.669-2.181 0.744-3.881 0.075-1.706 0.094-2.25 0.094-6.594s-0.019-4.887-0.094-6.594c-0.075-1.7-0.35-2.869-0.744-3.881-0.394-1.063-0.938-1.956-1.831-2.844-0.887-0.887-1.781-1.438-2.831-1.844-1.019-0.394-2.181-0.669-3.881-0.744-1.712-0.081-2.256-0.1-6.6-0.1v0z"/>
<path d="M16 7.781c-4.537 0-8.219 3.681-8.219 8.219s3.681 8.219 8.219 8.219 8.219-3.681 8.219-8.219c0-4.537-3.681-8.219-8.219-8.219zM16 21.331c-2.944 0-5.331-2.387-5.331-5.331s2.387-5.331 5.331-5.331c2.944 0 5.331 2.387 5.331 5.331s-2.387 5.331-5.331 5.331z"/>
<path d="M26.462 7.456c0 1.060-0.859 1.919-1.919 1.919s-1.919-0.859-1.919-1.919c0-1.060 0.859-1.919 1.919-1.919s1.919 0.859 1.919 1.919z"/>
</symbol><symbol id="icon-login" viewBox="0 0 471.2 471.2"><path d="M230.15 13.5c0 7.5 6 13.5 13.5 13.5h122.8c33.4 0 60.5 27.2 60.5 60.5v296.2c0 33.4-27.2 60.5-60.5 60.5h-124.8c-7.5 0-13.5 6-13.5 13.5s6 13.5 13.5 13.5h124.8c48.3 0 87.5-39.3 87.5-87.5V87.5c0-48.3-39.3-87.5-87.5-87.5h-122.8c-7.4 0-13.5 6-13.5 13.5z" data-original="#000000" class="active-path"/><path d="M346.75 245.1c2.6-2.6 4-6.1 4-9.5s-1.3-6.9-4-9.5l-85.8-85.8c-5.3-5.3-13.8-5.3-19.1 0-5.3 5.3-5.3 13.8 0 19.1l62.8 62.7H30.75c-7.5 0-13.5 6-13.5 13.5s6 13.5 13.5 13.5h273.9l-62.8 62.8c-5.3 5.3-5.3 13.8 0 19.1 5.3 5.3 13.8 5.3 19.1 0l85.8-85.9z" data-original="#000000" class="active-path"/></symbol><symbol id="icon-logotyp" viewBox="0 0 180 70">
<text transform="matrix(1.0048 0 0 1 1.0005 59.4111)" font-family="&apos;Gabriola&apos;" font-size="94.2317px">TOKO</text>
</symbol><symbol id="icon-mail" viewBox="0 0 512 512">
<g>
	<path d="M448,64H64C28.656,64,0,92.656,0,128v256c0,35.344,28.656,64,64,64h384c35.344,0,64-28.656,64-64V128
		C512,92.656,483.344,64,448,64z M342.656,234.781l135.469-116.094c0.938,3,1.875,6,1.875,9.313v256
		c0,2.219-0.844,4.188-1.281,6.281L342.656,234.781z M448,96c2.125,0,4,0.813,6,1.219L256,266.938L58,97.219
		C60,96.813,61.875,96,64,96H448z M33.266,390.25C32.828,388.156,32,386.219,32,384V128c0-3.313,0.953-6.313,1.891-9.313
		L169.313,234.75L33.266,390.25z M64,416c-3.234,0-6.172-0.938-9.125-1.844l138.75-158.563l51.969,44.531
		C248.578,302.719,252.297,304,256,304s7.422-1.281,10.406-3.875l51.969-44.531l138.75,158.563C454.188,415.062,451.25,416,448,416
		H64z"/>
</g>
<g>
</g>
<g>
</g>
<g>
</g>
<g>
</g>
<g>
</g>
<g>
</g>
<g>
</g>
<g>
</g>
<g>
</g>
<g>
</g>
<g>
</g>
<g>
</g>
<g>
</g>
<g>
</g>
<g>
</g>
</symbol><symbol id="icon-menu" viewBox="0 0 26 26">
<g id="surface1">
<path style=" " d="M 0 4 L 0 6 L 26 6 L 26 4 Z M 0 12 L 0 14 L 26 14 L 26 12 Z M 0 20 L 0 22 L 26 22 L 26 20 Z "/>
</g>
</symbol><symbol id="icon-phone" viewBox="0 0 32 32">
<title>phone-call</title>
<path d="M23.648 17.888c-0.512-0.512-1.312-0.512-1.824 0l-2.176 2.176c-6.496-1.408-7.616-6.24-7.808-7.712l2.208-2.208c0.512-0.512 0.512-1.312 0-1.792l-5.696-5.696c-0.256-0.256-0.576-0.384-0.928-0.384s-0.672 0.128-0.928 0.384l-3.040 3.168c-1.024 1.12-1.6 2.592-1.536 4.032 0.032 0.416 0.096 0.832 0.192 1.216 0.064 0.256 1.952 6.272 7.328 11.488 5.248 5.344 11.36 7.232 11.616 7.296 0.384 0.128 0.8 0.192 1.216 0.192 0.064 0 0.128 0 0.224 0 1.376 0 2.784-0.544 3.84-1.536l3.136-3.008c0.256-0.256 0.384-0.576 0.384-0.896 0-0.352-0.128-0.672-0.384-0.928l-5.824-5.792zM25.472 27.616c-0.864 0.8-2.016 1.248-3.136 1.184-0.32 0-0.608-0.064-0.896-0.16-0.064-0.032-6.048-1.888-11.072-7.008-5.12-4.992-7.008-10.88-7.008-10.944-0.096-0.256-0.128-0.576-0.16-0.896-0.032-1.12 0.384-2.24 1.184-3.104l3.040-3.136 5.728 5.696-2.208 2.208c-0.288 0.288-0.416 0.672-0.352 1.056 0.224 1.664 1.472 7.2 8.8 8.768 0.416 0.096 0.864-0.032 1.184-0.352l2.176-2.176 5.824 5.824-3.104 3.040zM16.704 7.2c-0.352 0.032-0.672-0.256-0.672-0.608-0.032-0.352 0.256-0.64 0.608-0.672 4.992-0.256 9.28 4.096 9.568 9.728 0.032 0.352-0.256 0.64-0.608 0.672 0 0-0.032 0-0.032 0-0.352 0-0.608-0.256-0.64-0.608-0.288-4.928-3.968-8.736-8.224-8.512zM30.080 15.456c0.032 0.352-0.256 0.64-0.608 0.672 0 0-0.032 0-0.032 0-0.352 0-0.608-0.256-0.64-0.608-0.192-3.456-1.568-6.656-3.904-8.992-2.336-2.304-5.312-3.488-8.416-3.328-0.352 0-0.672-0.256-0.672-0.608-0.032-0.352 0.256-0.64 0.608-0.672 3.456-0.192 6.784 1.12 9.376 3.712 2.56 2.56 4.096 6.048 4.288 9.824z"/>
</symbol><symbol id="icon-search" viewBox="0 0 32 32">
<title>icon-search</title>
<path d="M19.342 1.636c-6.116 0-11.093 4.978-11.093 11.093 0 2.631 0.924 5.049 2.489 6.969l-8.818 8.747 1.636 1.636 8.818-8.818c1.92 1.564 4.338 2.489 6.969 2.489 6.116 0 11.093-4.978 11.093-11.093s-5.049-11.022-11.093-11.022zM19.342 3.84c4.907 0 8.818 3.982 8.818 8.818s-3.982 8.818-8.818 8.818-8.818-3.982-8.818-8.818 3.911-8.818 8.818-8.818z"/>
</symbol><symbol id="icon-shoppingbag" viewBox="0 0 32 32">
<title>shopping-bag-1</title>
<path d="M28.8 27.661l-1.832-20.633c-0.039-0.458-0.425-0.805-0.877-0.805h-3.769c-0.052-3.442-2.866-6.223-6.321-6.223s-6.269 2.781-6.321 6.223h-3.769c-0.458 0-0.838 0.347-0.877 0.805l-1.832 20.633c0 0.026-0.007 0.052-0.007 0.079 0 2.349 2.153 4.26 4.803 4.26h16.007c2.65 0 4.803-1.911 4.803-4.26 0-0.026 0-0.052-0.007-0.079zM16 1.767c2.48 0 4.502 1.989 4.555 4.456h-9.109c0.052-2.467 2.074-4.456 4.555-4.456zM24.003 30.233h-16.007c-1.662 0-3.010-1.099-3.036-2.454l1.754-19.782h2.958v2.683c0 0.491 0.393 0.883 0.883 0.883s0.883-0.393 0.883-0.883v-2.683h9.116v2.683c0 0.491 0.393 0.883 0.883 0.883s0.883-0.393 0.883-0.883v-2.683h2.958l1.76 19.782c-0.026 1.355-1.381 2.454-3.036 2.454z"/>
</symbol><symbol id="icon-telegram"><path id="telegram-1" d="M18.384,22.779c0.322,0.228 0.737,0.285 1.107,0.145c0.37,-0.141 0.642,-0.457 0.724,-0.84c0.869,-4.084 2.977,-14.421 3.768,-18.136c0.06,-0.28 -0.04,-0.571 -0.26,-0.758c-0.22,-0.187 -0.525,-0.241 -0.797,-0.14c-4.193,1.552 -17.106,6.397 -22.384,8.35c-0.335,0.124 -0.553,0.446 -0.542,0.799c0.012,0.354 0.25,0.661 0.593,0.764c2.367,0.708 5.474,1.693 5.474,1.693c0,0 1.452,4.385 2.209,6.615c0.095,0.28 0.314,0.5 0.603,0.576c0.288,0.075 0.596,-0.004 0.811,-0.207c1.216,-1.148 3.096,-2.923 3.096,-2.923c0,0 3.572,2.619 5.598,4.062Zm-11.01,-8.677l1.679,5.538l0.373,-3.507c0,0 6.487,-5.851 10.185,-9.186c0.108,-0.098 0.123,-0.262 0.033,-0.377c-0.089,-0.115 -0.253,-0.142 -0.376,-0.064c-4.286,2.737 -11.894,7.596 -11.894,7.596Z"/></symbol><symbol id="icon-twitter" viewBox="0 0 32 32">
<title>icon-twitter</title>
<path d="M28.8 8.064c-0.96 0.448-1.984 0.704-3.008 0.832 1.088-0.64 1.92-1.664 2.304-2.88-1.024 0.576-2.112 1.024-3.328 1.28-0.96-1.024-2.304-1.664-3.84-1.664-2.88 0-5.248 2.368-5.248 5.248 0 0.384 0.064 0.832 0.128 1.216-4.352-0.192-8.256-2.304-10.816-5.504-0.448 0.768-0.704 1.664-0.704 2.624 0 1.792 0.896 3.456 2.368 4.352-0.832 0-1.664-0.256-2.368-0.64 0 0 0 0.064 0 0.064 0 2.56 1.792 4.672 4.224 5.12-0.448 0.128-0.896 0.192-1.408 0.192-0.32 0-0.64-0.064-0.96-0.064 0.64 2.112 2.624 3.584 4.928 3.648-1.792 1.408-4.032 2.24-6.528 2.24-0.448 0-0.832 0-1.28-0.064 2.304 1.472 5.056 2.368 8.064 2.368 9.664 0 14.976-8 14.976-14.976 0-0.256 0-0.448 0-0.704 0.896-0.704 1.792-1.664 2.496-2.688z"/>
</symbol><symbol id="icon-viber"><path d="M12.892 13.745s.427.038.656-.247l.448-.563c.216-.28.738-.458 1.249-.174.676.382 1.55.982 2.149 1.541.33.278.407.688.182 1.121l-.002.009c-.232.408-.541.791-.932 1.148l-.009.006c-.44.367-.946.58-1.487.404l-.01-.014c-.972-.275-3.304-1.464-4.79-2.649-2.431-1.918-4.159-5.082-4.637-6.778l-.015-.01c-.176-.543.039-1.049.404-1.488l.007-.008c.357-.391.739-.701 1.148-.932l.009-.002c.432-.225.842-.149 1.121.182.367.379 1.056 1.291 1.54 2.149.284.51.106 1.033-.173 1.248l-.564.448c-.284.23-.247.657-.247.657s.834 3.156 3.953 3.952zm4.907-2.616c-.167 0-.303-.135-.304-.302-.014-1.83-.564-3.288-1.634-4.332-1.072-1.045-2.427-1.581-4.027-1.592-.168-.001-.303-.138-.301-.306.001-.167.136-.301.303-.301h.002c1.762.012 3.258.606 4.447 1.764 1.19 1.162 1.802 2.765 1.817 4.763.001.167-.133.304-.301.306h-.002zm-1.595-.624h-.007c-.168-.004-.301-.143-.297-.31.024-1.038-.273-1.878-.906-2.569-.63-.689-1.495-1.065-2.645-1.149-.167-.013-.293-.158-.281-.325.013-.167.158-.293.325-.281 1.294.095 2.32.548 3.049 1.345.733.8 1.092 1.807 1.065 2.992-.004.165-.139.297-.303.297zm-1.558-.522c-.161 0-.295-.126-.303-.289-.051-1.03-.537-1.534-1.527-1.588-.168-.009-.296-.152-.287-.319.009-.168.151-.296.319-.287 1.308.07 2.034.819 2.101 2.164.009.167-.12.31-.288.318l-.015.001zm6.817 3.469c-.605 4.877-4.172 5.185-4.83 5.396-.28.09-2.882.737-6.152.524 0 0-2.438 2.94-3.199 3.705-.119.119-.258.167-.352.145-.131-.032-.167-.188-.165-.414l.02-4.016v-.001c-4.762-1.323-4.485-6.295-4.431-8.898.054-2.603.543-4.736 1.996-6.17 2.61-2.364 7.987-2.011 7.987-2.011 4.541.02 6.717 1.387 7.222 1.845 1.675 1.434 2.528 4.867 1.904 9.895zm-.652-11.113c-.597-.548-3.007-2.298-8.375-2.322 0 0-6.33-.382-9.416 2.45-1.718 1.718-2.322 4.231-2.386 7.348-.063 3.118-.146 8.958 5.484 10.542l.006.002-.004 2.416s-.035.979.609 1.179c.779.241 1.236-.502 1.981-1.304.408-.44.971-1.086 1.397-1.58 3.851.322 6.812-.417 7.149-.526.777-.253 5.177-.816 5.893-6.657.738-6.022-.358-9.83-2.338-11.548z"/></symbol><symbol id="icon-x" viewBox="0 0 32 32">
<title>x</title>
<path fill="none" stroke="#000" stroke-width="2.6667" stroke-miterlimit="4" stroke-linecap="round" stroke-linejoin="round" d="M24 8l-16 16"/>
<path fill="none" stroke="#000" stroke-width="2.6667" stroke-miterlimit="4" stroke-linecap="round" stroke-linejoin="round" d="M8 8l16 16"/>
</symbol></svg>